<?xml version="1.0" standalone="yes"?>

<svg version="1.1" viewBox="0.0 0.0 960.0 540.0" fill="none" stroke="none" stroke-linecap="square" stroke-miterlimit="10" xmlns="http://www.w3.org/2000/svg" xmlns:xlink="http://www.w3.org/1999/xlink"><clipPath id="g1e906353b5_0_21.0"><path d="m0 0l960.0 0l0 540.0l-960.0 0l0 -540.0z" clip-rule="nonzero"></path></clipPath><g clip-path="url(#g1e906353b5_0_21.0)"><path fill="#000000" fill-opacity="0.0" d="m0 0l960.0 0l0 540.0l-960.0 0z" fill-rule="evenodd"></path><path fill="#000000" fill-opacity="0.0" d="m32.724396 135.65617l910.3622 0l0 215.49605l-910.3622 0z" fill-rule="evenodd"></path><path fill="#ffab40" d="m65.40549 163.15724l672.4375 0l0 199.24998l-672.4375 0l0 -199.24998z" fill-rule="nonzero"></path><path fill="#cfe2f3" d="m139.96799 272.31348q0 -0.875 -0.484375 -1.140625q-0.484375 -0.265625 -2.609375 -0.265625l-31.65625 0l0 -9.8125l31.65625 0q12.90625 0 12.90625 11.21875q0 6.140625 -3.703125 8.9375q-3.6875 2.78125 -9.203125 2.78125l-31.65625 0l0 -9.8125l31.65625 0q3.09375 0 3.09375 -1.90625zm-31.9375 38.71875l-9.8125 0l0 -81.812485l38.65625 0q5.234375 0 9.0625 3.3125q3.84375 3.3125 3.84375 8.40625q0 6.390625 -3.671875 9.375q-3.671875 2.96875 -9.234375 2.96875l-31.65625 0l0 -9.8125l31.65625 0q3.09375 0 3.09375 -2.53125q0 -0.796875 -0.75 -1.34375q-0.734375 -0.5625 -2.34375 -0.5625l-28.84375 0l0 71.999985zm-2.8125 -58.562485l31.65625 0q5.1875 0 8.640625 -3.0q3.453125 -3.0 3.453125 -8.53125q0 -4.265625 -3.65625 -7.578125q-3.65625 -3.328125 -8.4375 -3.328125l-37.84375 0l0 80.999985l-9.8125 0l0 -90.812485l47.65625 0q8.734375 0 15.3125 6.15625q6.59375 6.15625 6.59375 14.5625q0 6.453125 -3.0625 11.34375q-3.046875 4.8749847 -3.90625 4.7968597q6.96875 1.984375 6.96875 14.609375q0 9.671875 -6.4375 15.515625q-6.4375 5.828125 -15.46875 5.828125l-31.65625 0l0 -9.8125l31.65625 0q5.1875 0 8.640625 -3.0q3.453125 -3.0 3.453125 -8.53125q0 -3.515625 -2.546875 -6.25q-2.546875 -2.75 -7.59375 -3.203125q-0.515625 0.046875 -1.953125 0.046875l-31.65625 0l0 -9.812485zm62.5625 -11.53125q0 9.75 -5.296875 15.781235q5.296875 5.890625 5.296875 14.96875q0 8.5625 -4.296875 15.59375q-4.28125 7.015625 -11.359375 10.890625q-7.078125 3.859375 -15.25 3.859375l-31.65625 0l0 -9.8125l31.65625 0q8.703125 0 14.890625 -5.78125q6.203125 -5.78125 6.203125 -14.75q0 -3.09375 -1.59375 -6.90625q-1.59375 -3.8125 -6.875 -7.5625q8.46875 -7.9374847 8.46875 -16.281235q0 -7.984375 -6.328125 -13.9375q-6.328125 -5.96875 -14.765625 -5.96875l-46.84375 0l0 89.999985l-9.8125 0l0 -99.812485l56.65625 0q8.125 0 15.265625 4.0q7.140625 3.984375 11.390625 10.890625q4.25 6.890625 4.25 14.828125zm-7.109375 16.17186q6.296875 -8.437485 6.296875 -16.17186q0 -7.6875 -4.09375 -14.359375q-4.09375 -6.671875 -11.0625 -10.609375q-6.953125 -3.9375 -14.9375 -3.9375l-55.84375 0l0 98.999985l-9.8125 0l0 -108.812485l65.65625 0q10.578125 0 19.765625 5.21875q9.203125 5.21875 14.671875 14.171875q5.46875 8.953125 5.46875 19.328125q0 10.078125 -4.546875 16.156235q4.546875 6.296875 4.546875 14.59375q0 8.921875 -3.21875 16.40625q-3.21875 7.484375 -8.71875 12.484375q-5.5 4.984375 -12.71875 7.71875q-7.203125 2.734375 -15.25 2.734375l-31.65625 0l0 -9.8125l31.65625 0q6.03125 0 11.5625 -2.265625q5.53125 -2.28125 9.59375 -6.171875q4.0625 -3.90625 6.5 -9.40625q2.4375 -5.5 2.4375 -11.6875q0 -2.5625 -1.265625 -6.328125q-1.25 -3.78125 -5.03125 -8.25zm48.734375 53.921875l-9.8125 0l0 -95.312485l9.8125 0l0 95.312485zm-9.0 0l-9.8125 0l0 -95.312485l9.8125 0l0 95.312485zm-9.0 0l-9.8125 0l0 -95.312485l9.8125 0l0 95.312485zm27.0 -27.8125l43.0625 0l0 9.8125l-43.0625 0l0 -0.8125l43.0625 0l0 9.8125l-43.0625 0l0 -0.8125l43.0625 0l0 9.8125l-52.875 0l0 -95.312485l52.875 0l0 9.8125l-43.0625 0l0 -0.8125l43.0625 0l0 9.8125l-43.0625 0l0 -0.8125l43.0625 0l0 9.8125l-43.0625 0l0 5.875l40.5625 0l0 9.812485l-40.5625 0l0 -0.8125l40.5625 0l0 9.8125l-40.5625 0l0 -0.8125l40.5625 0l0 9.8125l-40.5625 0l0 6.0zm112.4375 -19.21875q0 -6.796875 -4.109375 -10.437485q-4.109375 -3.65625 -11.234375 -3.65625q-5.8125 0 -9.953125 3.984375q-4.140625 3.9843597 -4.140625 9.48436q0 3.3125 0.84375 5.828125q0.84375 2.515625 2.234375 4.109375q1.390625 1.578125 3.390625 2.65625q2.0 1.078125 4.265625 1.578125q2.265625 0.484375 4.921875 0.484375q6.390625 0 15.65625 -5.515625l0 10.78125q-8.0625 4.234375 -15.71875 4.234375q-4.90625 0 -9.296875 -1.34375q-4.375 -1.34375 -8.09375 -4.15625q-3.703125 -2.828125 -5.859375 -7.671875q-2.15625 -4.859375 -2.15625 -10.984375q0 -9.73436 6.84375 -16.499985q6.84375 -6.78125 17.0625 -6.78125q11.09375 0 18.125 6.40625q7.03125 6.390625 7.03125 17.499985l0 47.03125l-9.8125 0l0 -47.03125zm18.8125 0l0 47.03125l-9.8125 0l0 -47.03125q0 -10.64061 -6.75 -16.85936q-6.75 -6.234375 -17.59375 -6.234375q-9.90625 0 -16.5 6.546875q-6.59375 6.53125 -6.59375 15.92186q0 5.8125 1.96875 10.328125q1.984375 4.515625 5.359375 7.234375q3.375 2.703125 7.65625 4.15625q4.296875 1.4375 9.109375 1.4375q6.484375 0 16.21875 -5.015625l0 10.875q-8.875 3.703125 -16.28125 3.703125q-6.625 0 -12.640625 -2.046875q-6.0 -2.0625 -10.8125 -6.078125q-4.796875 -4.015625 -7.59375 -10.390625q-2.796875 -6.390625 -2.796875 -14.203125q0 -13.42186 9.5 -22.843735q9.5 -9.4375 23.40625 -9.4375q9.640625 0 17.390625 3.984375q7.75 3.96875 12.25 11.546875q4.515625 7.578125 4.515625 17.374985zm9.0 0l0 47.03125l-9.8125 0l0 -47.03125q0 -9.57811 -4.34375 -16.906235q-4.328125 -7.34375 -11.890625 -11.265625q-7.5625 -3.921875 -17.109375 -3.921875q-8.984375 0 -16.375 4.25q-7.375 4.234375 -11.546875 11.4375q-4.171875 7.1875 -4.171875 15.781235q0 7.4375 2.703125 13.5q2.703125 6.0625 7.25 9.96875q4.5625 3.890625 10.453125 6.078125q5.90625 2.171875 12.375 2.171875q6.515625 0 16.53125 -4.3125l0 10.4375q-9.296875 3.5 -16.65625 3.5q-11.484375 0 -21.15625 -5.203125q-9.671875 -5.203125 -15.5 -14.765625q-5.8125 -9.5625 -5.8125 -21.375q0 -8.42186 3.234375 -16.031235q3.234375 -7.609375 8.78125 -13.15625q5.5625 -5.5625 13.359375 -8.828125q7.8125 -3.265625 16.53125 -3.265625q12.09375 0 21.9375 5.203125q9.84375 5.203125 15.53125 14.84375q5.6875 9.640625 5.6875 21.85936zm9.0 0l0 47.03125l-9.8125 0l0 -47.03125q0 -12.01561 -5.5625 -21.406235q-5.5625 -9.40625 -15.203125 -14.546875q-9.625 -5.140625 -21.578125 -5.140625q-11.40625 0 -20.859375 5.46875q-9.453125 5.453125 -14.84375 14.75q-5.390625 9.28125 -5.390625 20.249985q0 7.234375 2.3125 13.703125q2.3125 6.46875 6.3125 11.296875q4.015625 4.8125 9.28125 8.359375q5.265625 3.53125 11.359375 5.359375q6.09375 1.8125 12.390625 1.8125q6.828125 0 16.65625 -4.171875l0 10.515625q-9.140625 3.21875 -16.90625 3.21875q-7.953125 0 -15.5 -2.25q-7.53125 -2.234375 -13.953125 -6.609375q-6.421875 -4.375 -11.328125 -10.359375q-4.890625 -6.0 -7.671875 -13.984375q-2.765625 -8.0 -2.765625 -16.890625q0 -10.218735 3.859375 -19.48436q3.859375 -9.265625 10.5625 -16.046875q6.71875 -6.78125 16.234375 -10.765625q9.53125 -3.984375 20.25 -3.984375q10.859375 0 20.453125 3.6875q9.609375 3.671875 16.625 10.265625q7.03125 6.59375 11.046875 16.171875q4.03125 9.5625 4.03125 20.781235zm39.8125 -1.28125l29.78125 0q4.359375 0 7.28125 -2.640625q2.9375 -2.640625 2.9375 -7.5781097q0 -3.328125 -3.09375 -6.140625q-3.09375 -2.828125 -7.125 -2.828125l-35.96875 0l0 67.499985l-9.8125 0l0 -77.312485l45.78125 0q7.984375 0 14.0 5.625q6.03125 5.625 6.03125 13.15625q0 9.093735 -5.875 14.562485q-5.859375 5.46875 -14.15625 5.46875l-29.78125 0l0 -9.8125zm0 9.0l29.78125 0q7.9375 0 13.578125 -5.359375q5.640625 -5.375 5.640625 -13.85936q0 -7.046875 -5.765625 -12.5q-5.765625 -5.46875 -13.453125 -5.46875l-44.96875 0l0 76.499985l-9.8125 0l0 -86.312485l54.78125 0q11.6875 0 20.359375 8.296875q8.671875 8.28125 8.671875 19.484375q0 12.374985 -8.578125 20.70311q-8.5625 8.328125 -20.453125 8.328125l-29.78125 0l0 -9.8125zm0 9.0l29.78125 0q7.609375 0 14.0625 -3.65625q6.453125 -3.65625 10.296875 -10.15625q3.859375 -6.515625 3.859375 -14.406235q0 -7.0625 -3.8125 -13.296875q-3.8125 -6.234375 -10.375 -9.953125q-6.546875 -3.71875 -14.03125 -3.71875l-53.96875 0l0 85.499985l-9.8125 0l0 -95.312485l63.78125 0q7.609375 0 14.609375 2.984375q7.015625 2.984375 12.109375 7.921875q5.109375 4.9375 8.203125 11.75q3.109375 6.796875 3.109375 14.125q0 11.687485 -5.390625 20.48436q-5.390625 8.796875 -12.359375 12.296875l9.96875 25.75l-10.5 0l-8.21875 -22.875q0.15625 0.765625 -0.109375 0.1875l9.609375 22.6875l-10.515625 0l-8.140625 -20.5625q-0.125 0.0625 -0.25 -1.140625l9.6875 21.703125l-10.453125 0l-7.875 -20.5l1.578125 0l7.5625 20.5l-10.40625 0l-7.625 -20.5l-14.375 0l0 -9.8125zm2.8125 30.3125l-9.8125 0l0 -68.312485l36.78125 0q4.484375 0 7.75 2.8125q3.28125 2.8125 3.28125 6.96875q0 11.031235 -11.03125 11.031235l-29.78125 0l0 -9.812485l29.78125 0q1.21875 0 1.21875 -1.21875q0.65625 0 0.09375 0.015625q-0.5625 0.015625 -1.3125 0.015625l-26.96875 0l0 58.499985zm96.625 -95.312485l9.8125305 0l0 95.312485l-9.8125305 0l0 -95.312485zm-9.0 0l9.8125 0l0 95.312485l-9.8125 0l0 -95.312485zm-9.0 0l9.8125 0l0 95.312485l-9.8125 0l0 -95.312485zm-9.0 0l9.8125 0l0 95.312485l-9.8125 0l0 -95.312485zm119.56253 66.687485l-9.8125 -17.84375l0 -48.843735l9.8125 0l0 66.687485zm9.0 14.953125l-9.8125 -16.640625l0 -64.999985l9.8125 0l0 81.64061zm-67.3125 -53.01561l9.8125 17.843735l0 48.84375l-9.8125 0l0 -66.687485zm-9.0 -16.265625l9.8125 18.0l0 64.95311l-9.8125 0l0 -82.95311zm-0.390625 -12.359375l11.390625 0l55.203125 95.312485l-11.390625 0l-55.203125 -95.312485zm10.625 0l11.453125 0l55.140625 95.312485l-11.515625 0l-55.078125 -95.312485zm10.578125 0l11.375 0l43.3125 74.937485l0 -74.937485l9.8125 0l0 95.312485l-9.5 0l-55.0 -95.312485zm-20.0 20.296875l0 75.01561l-9.8125 0l0 -95.312485l9.5625 0l55.0 95.312485l-11.3125 0l-43.4375 -75.01561zm154.25 24.07811l9.8125 0l0 50.0q-12.09375 5.4375 -23.34375 5.4375q-10.609375 0 -20.25 -4.15625q-9.640625 -4.140625 -16.625 -11.125q-6.984375 -6.984375 -11.140625 -16.625q-4.140625 -9.640625 -4.140625 -20.25q0 -10.60936 4.140625 -20.249985q4.15625 -9.640625 11.140625 -16.625q6.984375 -6.984375 16.625 -11.125q9.640625 -4.15625 20.25 -4.15625q12.109375 0 22.78125 5.234375q10.671875 5.234375 19.703125 16.546875l-7.890625 5.84375q-7.546875 -9.34375 -16.171875 -13.578125q-8.609375 -4.234375 -18.421875 -4.234375q-8.578125 0 -16.4375 3.359375q-7.859375 3.34375 -13.53125 9.015625q-5.671875 5.671875 -9.03125 13.53125q-3.34375 7.859375 -3.34375 16.437485q0 8.578125 3.34375 16.4375q3.359375 7.859375 9.03125 13.53125q5.671875 5.671875 13.53125 9.03125q7.859375 3.34375 16.4375 3.34375q7.9375 0 13.53125 -2.15625l0 1.109375q-4.640625 1.859375 -13.53125 1.859375q-8.796875 0 -16.78125 -3.421875q-7.984375 -3.4375 -13.75 -9.203125q-5.765625 -5.765625 -9.203125 -13.75q-3.421875 -7.984375 -3.421875 -16.78125q0 -8.79686 3.421875 -16.781235q3.4375 -7.984375 9.203125 -13.75q5.765625 -5.765625 13.75 -9.1875q7.984375 -3.4375 16.78125 -3.4375q10.046875 0 18.875 4.328125q8.828125 4.328125 16.546875 13.984375l-7.640625 6.140625q-6.359375 -7.921875 -13.203125 -11.28125q-6.828125 -3.359375 -14.578125 -3.359375q-6.765625 0 -12.9375 2.640625q-6.171875 2.625 -10.65625 7.109375q-4.484375 4.484375 -7.125 10.65625q-2.625 6.1718597 -2.625 12.937485q0 6.765625 2.625 12.9375q2.640625 6.171875 7.125 10.65625q4.484375 4.484375 10.65625 7.125q6.171875 2.625 12.9375 2.625q8.046875 0 13.53125 -2.546875l0 1.296875q-4.296875 2.0625 -13.53125 2.0625q-9.28125 0 -17.140625 -4.578125q-7.859375 -4.578125 -12.4375 -12.4375q-4.578125 -7.859375 -4.578125 -17.140625q0 -9.281235 4.578125 -17.14061q4.578125 -7.859375 12.4375 -12.4375q7.859375 -4.578125 17.140625 -4.578125q7.921875 0 14.9375 3.421875q7.03125 3.421875 13.4375 11.578125l-7.765625 5.984375q-5.0 -6.328125 -9.984375 -8.75q-4.984375 -2.421875 -10.625 -2.421875q-10.078125 0 -17.21875 7.15625q-7.125 7.15625 -7.125 17.187485q0 10.03125 7.125 17.1875q7.140625 7.15625 17.21875 7.15625q8.046875 0 13.53125 -3.140625l0.046875 1.546875q-3.984375 2.40625 -13.578125 2.40625q-10.40625 0 -17.78125 -7.375q-7.375 -7.375 -7.375 -17.78125q0 -10.406235 7.375 -17.781235q7.375 -7.375 17.78125 -7.375q5.875 0 11.03125 2.546875q5.171875 2.546875 10.359375 9.078125l-7.84375 5.953125q-6.25 -7.765625 -13.546875 -7.765625q-6.34375 0 -10.84375 4.5q-4.5 4.4999847 -4.5 10.843735q0 6.34375 4.5 10.84375q4.5 4.5 10.84375 4.5q8.625 0 13.53125 -3.9375l0 -14.6875zm27.0 0l9.8125 0l0 50.9375l-9.8125 0l0 -50.9375zm-9.0 0l9.8125 0l0 50.9375l-9.8125 0l0 -50.9375zm-9.0 0l9.8125 0l0 50.9375l-9.8125 0l0 -50.9375z" fill-rule="nonzero"></path><path fill="#cfe2f3" d="m737.843 183.03224l172.5625 0l0 159.99998l-172.5625 0l0 -159.99998z" fill-rule="nonzero"></path><path fill="#ff9900" d="m791.49927 254.62599q0.65625 -0.65625 4.03125 1.7812347q3.375 2.4375 5.59375 5.5625q2.234375 3.109375 3.28125 6.734375q1.0625 3.609375 1.0625 7.421875q0 4.25 -1.265625 8.546875q-1.25 4.28125 -3.609375 8.21875q-2.359375 3.9375 -5.75 7.359375q-3.390625 3.421875 -7.6875 5.984375q-4.296875 2.546875 -9.453125 3.984375q-5.15625 1.4375 -10.953125 1.4375q-2.0 0 -4.78125 -0.265625q-2.765625 -0.265625 -5.859375 -1.109375q-3.078125 -0.859375 -6.203125 -2.46875q-3.109375 -1.609375 -5.65625 -4.359375q-2.546875 -2.765625 -4.109375 -6.765625q-1.546875 -4.0 -1.546875 -9.4375q0 -4.375 1.09375 -8.1875q1.09375 -3.8125 3.421875 -6.6875q2.328125 -2.890625 5.75 -4.484375q3.421875 -1.609375 7.890625 -1.609375q2.0 0 4.0 0.390625q2.015625 0.375 3.75 1.40625q1.734375 1.015625 3.046875 2.71875q1.3125 1.6875 2.40625 7.15625q-6.015625 0.40625 -7.6875 1.515625q-1.65625 1.09375 -2.5625 2.640625q-0.90625 1.546875 -1.234375 3.515625q-0.3125 1.96875 -0.3125 3.6875q0 2.34375 0.6875 4.015625q0.703125 1.65625 1.8125 2.75q1.125 1.078125 2.59375 1.640625q1.484375 0.5625 3.1875 0.5625q2.3125 0 4.71875 -1.078125q2.421875 -1.078125 4.46875 -3.390625q2.046875 -2.328125 3.375 -5.953125q1.34375 -3.640625 1.34375 -8.796875q0 -3.265625 -0.90625 -6.546875q-0.890625 -3.296875 -2.734375 -6.203125q-1.84375 -2.90625 -4.71875 -5.234375q-2.859375 -2.34375 -14.84375 -6.3906097q13.078125 -3.8125 16.828125 -6.390625q3.765625 -2.578125 6.25 -5.71875q2.5 -3.15625 3.75 -6.453125q1.25 -3.296875 1.25 -6.1875q0 -1.859375 -0.453125 -3.328125q-0.453125 -1.484375 -1.296875 -2.4375q-0.828125 -0.96875 -2.140625 -1.515625q-1.3125 -0.5625 -3.203125 -0.5625q-1.828125 0 -3.21875 0.53125q-1.375 0.53125 -2.296875 1.421875q-0.90625 0.890625 -1.4375 2.234375q-0.515625 1.34375 -0.515625 3.09375q0 1.078125 0.203125 2.234375q0.203125 1.15625 0.625 2.09375q0.4375 0.921875 0.96875 1.5q0.546875 0.5625 5.703125 2.046875q-6.1875 5.703125 -9.15625 6.96875q-2.953125 1.25 -5.875 1.25q-2.421875 0 -4.625 -0.9375q-2.203125 -0.9375 -3.828125 -2.71875q-1.625 -1.796875 -2.515625 -4.296875q-0.875 -2.5 -0.875 -5.578125q0 -5.09375 2.375 -9.203125q2.390625 -4.125 6.359375 -6.984375q3.984375 -2.859375 9.234375 -4.375q5.25 -1.53125 11.1875 -1.53125q6.3125 0 11.234375 1.6875q4.921875 1.6875 8.34375 4.640625q3.421875 2.953125 5.15625 6.859375q1.734375 3.90625 1.734375 8.15625q0 3.625 -1.234375 7.296875q-1.21875 3.671875 -3.609375 7.0625q-2.390625 3.375 -5.921875 6.40625q-3.53125 3.015625 -4.640625 2.671875zm14.21875 56.406235l16.875 -79.874985l-12.265625 0l2.859375 -11.1875q4.578125 0 7.65625 -0.234375q3.09375 -0.234375 6.890625 -1.21875q3.796875 -0.984375 8.4375 -2.875q4.640625 -1.890625 15.515625 -8.453125l-22.09375 103.843735l-23.875 0zm66.40625 0.625q-12.3125 0 -19.140625 -5.53125q-6.828125 -5.546875 -6.828125 -15.75q0 -4.46875 1.390625 -8.25q1.390625 -3.78125 3.953125 -6.5625q2.5625 -2.78125 6.109375 -4.28125q3.546875 -1.5 7.765625 -1.5q9.984375 0 12.296875 11.453125q-7.1875 0.859375 -9.609375 3.265625q-2.40625 2.40625 -2.40625 6.3125q0 3.421875 1.859375 5.203125q1.859375 1.765625 5.296875 1.765625q3.0625 0 5.609375 -1.421875q2.5625 -1.4375 4.484375 -4.171875q1.921875 -2.734375 3.046875 -6.640625q1.140625 -3.921875 1.140625 -8.734375q0 -8.09375 -3.015625 -11.96875q-3.0 -3.875 -8.390625 -3.875q-3.109375 0 -6.84375 1.296875q-3.71875 1.28125 -10.046875 5.03125l-4.5625 -3.265625l10.78125 -52.531235q8.015625 0.984375 13.3125 1.484375q5.296875 0.484375 10.234375 0.484375q5.296875 0 10.515625 -0.78125q5.234375 -0.78125 14.046875 -3.75q0.515625 4.390625 0.578125 5.53125q0.078125 1.140625 0.078125 2.28125q0 3.4375 -0.921875 6.578125q-0.90625 3.140625 -3.015625 5.640625q-2.109375 2.484375 -5.46875 3.875q-3.34375 1.375 -7.9375 1.375q-2.75 0 -5.8125 -0.421875q-3.046875 -0.421875 -6.0 -0.953125q-2.9375 -0.546875 -5.53125 -1.0625q-2.59375 -0.53125 -2.421875 -1.109375l-2.953125 16.09375q3.796875 -1.859375 12.09375 -1.859375q5.75 0 10.46875 2.078125q4.71875 2.078125 8.015625 5.921875q3.3125 3.8281097 5.046875 9.187485q1.75 5.359375 1.75 11.84375q0 8.390625 -2.828125 15.328125q-2.828125 6.9375 -7.984375 11.953125q-5.140625 5.015625 -12.34375 7.734375q-7.203125 2.703125 -15.8125 2.703125z" fill-rule="nonzero"></path><path fill="#000000" fill-opacity="0.0" d="m291.25986 387.7244l377.48032 0l0 133.07089l-377.48032 0z" fill-rule="evenodd"></path><path fill="#000000" d="m304.2286 413.87878l1.5625 0l0 -11.78125l-4.109375 0l0 2.171875l-0.75 0l0 -2.921875l10.5 0l0 2.921875l-0.765625 0l0 -2.171875l-4.09375 0l0 11.78125l1.484375 0l0 0.765625l-3.828125 0l0 -0.765625zm17.185333 -12.53125l3.828125 0l0 0.75l-1.46875 0l0 11.78125l1.46875 0l0 0.765625l-3.828125 0l0 -0.765625l1.5625 0l0 -5.5625l-8.171875 0l0 5.5625l1.5625 0l0 0.765625l-3.8125 0l0 -0.765625l1.46875 0l0 -11.78125l-1.46875 0l0 -0.75l3.8125 0l0 0.75l-1.5625 0l0 5.453125l8.171875 0l0 -5.453125l-1.5625 0l0 -0.75zm4.9089355 12.53125l1.359375 0l0 -11.78125l-1.359375 0l0 -0.75l9.25 0l0 2.921875l-0.765625 0l0 -2.171875l-6.34375 0l0 5.453125l6.359375 0l0 0.765625l-6.359375 0l0 5.5625l6.609375 0l0 -2.15625l0.765625 0l0 2.921875l-9.515625 0l0 -0.765625zm16.249603 0l1.15625 0l0 -11.78125l-1.15625 0l0 -0.75l4.1875 0q0.890625 0 1.625 0.1875q0.734375 0.1875 1.25 0.59375q0.53125 0.390625 0.8125 1.03125q0.28125 0.640625 0.28125 1.515625q0 1.171875 -0.578125 2.0625q-0.578125 0.890625 -1.765625 1.21875q0.5625 0.109375 1.078125 0.375q0.515625 0.265625 0.90625 0.6875q0.390625 0.421875 0.625 0.96875q0.234375 0.546875 0.234375 1.234375q0 0.859375 -0.34375 1.5q-0.34375 0.625 -0.921875 1.0625q-0.578125 0.421875 -1.328125 0.640625q-0.734375 0.21875 -1.53125 0.21875l-4.53125 0l0 -0.765625zm1.9375 -5.546875l0 5.546875l2.515625 0q0.703125 0 1.3125 -0.171875q0.625 -0.171875 1.09375 -0.5q0.46875 -0.34375 0.734375 -0.84375q0.28125 -0.515625 0.28125 -1.203125q0 -0.734375 -0.3125 -1.265625q-0.3125 -0.53125 -0.84375 -0.875q-0.515625 -0.359375 -1.1875 -0.515625q-0.671875 -0.171875 -1.390625 -0.171875l-2.203125 0zm0 -6.234375l0 5.484375l2.5 0q1.34375 0 2.140625 -0.78125q0.8125 -0.796875 0.8125 -2.078125q0 -0.703125 -0.21875 -1.203125q-0.21875 -0.5 -0.625 -0.8125q-0.390625 -0.3125 -0.953125 -0.453125q-0.5625 -0.15625 -1.234375 -0.15625l-2.421875 0zm7.875702 11.78125l1.453125 0q1.40625 -3.296875 2.796875 -6.5625q1.40625 -3.28125 2.796875 -6.578125q1.375 3.296875 2.765625 6.578125q1.40625 3.265625 2.796875 6.5625l1.484375 0l0 0.765625l-3.671875 0l0 -0.765625l1.390625 0q-0.53125 -1.234375 -1.046875 -2.453125q-0.515625 -1.234375 -1.046875 -2.484375l-5.359375 0q-0.53125 1.25 -1.046875 2.484375q-0.5 1.21875 -1.046875 2.453125l1.390625 0l0 0.765625l-3.65625 0l0 -0.765625zm7.21875 -10.84375l-0.171875 -0.53125q-0.046875 0.0625 -0.09375 0.28125q-0.046875 0.125 -0.09375 0.25q-0.203125 0.5 -0.453125 1.125q-0.25 0.609375 -0.546875 1.28125q-0.28125 0.671875 -0.578125 1.375q-0.296875 0.703125 -0.578125 1.375l4.671875 0l-2.15625 -5.15625zm7.9301147 10.84375l1.53125 0l0 -11.78125l-1.53125 0l0 -0.75l2.046875 0l10.0 11.625l0.359375 0.5l-0.0625 -0.609375l0 -10.765625l-1.421875 0l0 -0.75l3.8125 0l0 0.75l-1.59375 0l0 13.15625l-10.5 -12.140625l-0.375 -0.421875l0.0625 0.53125l0 10.65625l1.484375 0l0 0.765625l-3.8125 0l0 -0.765625zm15.783203 0l1.1875 0l0 -11.78125l-1.1875 0l0 -0.75l3.984375 0q1.359375 0 2.578125 0.46875q1.21875 0.453125 2.125 1.328125q0.921875 0.859375 1.453125 2.09375q0.53125 1.234375 0.53125 2.75q0 1.125 -0.390625 2.3125q-0.390625 1.171875 -1.265625 2.140625q-0.875 0.96875 -2.28125 1.59375q-1.390625 0.609375 -3.390625 0.609375l-3.34375 0l0 -0.765625zm1.96875 -11.78125l0 11.78125l1.65625 0q1.578125 0 2.75 -0.5q1.1875 -0.5 1.953125 -1.328125q0.78125 -0.828125 1.171875 -1.875q0.390625 -1.0625 0.390625 -2.1875q0 -1.34375 -0.46875 -2.4375q-0.453125 -1.09375 -1.265625 -1.859375q-0.8125 -0.765625 -1.890625 -1.171875q-1.0625 -0.421875 -2.28125 -0.421875l-2.015625 0zm11.821991 10.90625q-0.40625 1.0 -0.8125 1.96875q-0.390625 0.96875 -0.8125 1.953125l-0.71875 0q0.375 -0.984375 0.71875 -1.953125q0.359375 -0.96875 0.734375 -1.96875l0.890625 0zm10.625 0.875l1.5625 0l0 -11.78125l-4.109375 0l0 2.171875l-0.75 0l0 -2.921875l10.5 0l0 2.921875l-0.765625 0l0 -2.171875l-4.09375 0l0 11.78125l1.484375 0l0 0.765625l-3.828125 0l0 -0.765625zm17.185364 -12.53125l3.828125 0l0 0.75l-1.46875 0l0 11.78125l1.46875 0l0 0.765625l-3.828125 0l0 -0.765625l1.5625 0l0 -5.5625l-8.171875 0l0 5.5625l1.5625 0l0 0.765625l-3.8125 0l0 -0.765625l1.46875 0l0 -11.78125l-1.46875 0l0 -0.75l3.8125 0l0 0.75l-1.5625 0l0 5.453125l8.171875 0l0 -5.453125l-1.5625 0l0 -0.75zm4.9089355 12.53125l1.359375 0l0 -11.78125l-1.359375 0l0 -0.75l9.25 0l0 2.921875l-0.765625 0l0 -2.171875l-6.34375 0l0 5.453125l6.359375 0l0 0.765625l-6.359375 0l0 5.5625l6.609375 0l0 -2.15625l0.765625 0l0 2.921875l-9.515625 0l0 -0.765625zm31.233978 -12.53125l2.0 0l0 0.75l-1.546875 0l0 11.78125l1.59375 0l0 0.765625l-3.8125 0l0 -0.765625l1.421875 0l0 -10.15625q0 -0.015625 0 -0.125q0.015625 -0.125 0.03125 -0.25q0.015625 -0.125 0.015625 -0.234375q0 -0.109375 0 -0.15625q-0.0625 0.09375 -0.15625 0.21875q-0.078125 0.125 -0.1875 0.28125q-0.421875 0.5625 -1.140625 1.5q-0.703125 0.921875 -1.53125 2.0q-0.8125 1.0625 -1.65625 2.15625q-0.84375 1.078125 -1.53125 1.984375q-1.3125 -1.71875 -2.234375 -2.90625q-0.90625 -1.203125 -1.578125 -2.078125q-0.671875 -0.890625 -1.171875 -1.53125q-0.5 -0.65625 -0.984375 -1.265625l-0.21875 -0.359375q0 0.21875 0 0.40625q0.015625 0.171875 0.03125 0.359375l0 10.15625l1.484375 0l0 0.765625l-3.8125 0l0 -0.765625l1.53125 0l0 -11.78125l-1.53125 0l0 -0.75l1.984375 0q0.21875 0.28125 0.625 0.828125q0.421875 0.53125 0.953125 1.234375q0.546875 0.703125 1.171875 1.53125q0.640625 0.828125 1.296875 1.671875q0.65625 0.84375 1.28125 1.671875q0.640625 0.8125 1.171875 1.515625q1.640625 -2.109375 3.25 -4.21875q1.609375 -2.125 3.25 -4.234375zm7.6030884 12.53125l1.40625 0l0 -4.265625q-1.140625 -1.890625 -2.25 -3.75q-1.109375 -1.875 -2.234375 -3.765625l-1.46875 0l0 -0.75l3.8125 0l0 0.75l-1.390625 0q1.90625 3.140625 3.765625 6.28125l0.234375 0.53125l0.015625 0l0.203125 -0.53125l3.75 -6.28125l-1.375 0l0 -0.75l3.828125 0l0 0.75l-1.484375 0q-1.125 1.90625 -2.234375 3.765625q-1.109375 1.859375 -2.234375 3.75l0 4.265625l1.484375 0l0 0.765625l-3.828125 0l0 -0.765625zm12.667572 0l1.5625 0l0 -11.78125l-4.109375 0l0 2.171875l-0.75 0l0 -2.921875l10.5 0l0 2.921875l-0.765625 0l0 -2.171875l-4.09375 0l0 11.78125l1.484375 0l0 0.765625l-3.828125 0l0 -0.765625zm17.185364 -12.53125l3.828125 0l0 0.75l-1.46875 0l0 11.78125l1.46875 0l0 0.765625l-3.828125 0l0 -0.765625l1.5625 0l0 -5.5625l-8.171875 0l0 5.5625l1.5625 0l0 0.765625l-3.8125 0l0 -0.765625l1.46875 0l0 -11.78125l-1.46875 0l0 -0.75l3.8125 0l0 0.75l-1.5625 0l0 5.453125l8.171875 0l0 -5.453125l-1.5625 0l0 -0.75zm6.9089355 11.65625q-0.40625 1.0 -0.8125 1.96875q-0.390625 0.96875 -0.8125 1.953125l-0.71875 0q0.375 -0.984375 0.71875 -1.953125q0.359375 -0.96875 0.734375 -1.96875l0.890625 0zm15.3437195 -5.484375l2.734375 0l0 0.78125l-1.9375 0l0 1.296875q0.015625 0.671875 0 1.46875q-0.015625 0.796875 -0.359375 1.53125l1.234375 1.984375l-0.609375 0.421875l-1.03125 -1.65625q-0.515625 0.671875 -1.296875 1.0625q-0.765625 0.390625 -1.6875 0.390625q-0.78125 0 -1.453125 -0.296875q-0.671875 -0.296875 -1.171875 -0.78125q-0.5 -0.5 -0.796875 -1.171875q-0.296875 -0.6875 -0.296875 -1.453125q0 -0.6875 0.21875 -1.296875q0.234375 -0.625 0.65625 -1.109375q0.421875 -0.484375 0.96875 -0.8125q0.5625 -0.328125 1.234375 -0.4375l-1.34375 -2.21875q-0.34375 -0.578125 -0.5 -1.171875q-0.140625 -0.609375 -0.046875 -1.203125q0.109375 -0.59375 0.4375 -1.09375q0.34375 -0.515625 0.96875 -0.90625q0.546875 -0.3125 1.09375 -0.375q0.5625 -0.078125 1.09375 0.015625q0.53125 0.09375 1.0 0.3125q0.46875 0.203125 0.828125 0.4375l-0.328125 0.640625q-0.328125 -0.1875 -0.71875 -0.359375q-0.390625 -0.1875 -0.8125 -0.265625q-0.40625 -0.09375 -0.828125 -0.046875q-0.40625 0.03125 -0.8125 0.265625q-1.015625 0.65625 -1.140625 1.625q-0.109375 0.96875 0.46875 1.890625l3.96875 6.46875q0.265625 -0.484375 0.265625 -1.046875l0 -2.890625zm-5.890625 3.578125q0 0.609375 0.21875 1.140625q0.234375 0.53125 0.625 0.9375q0.390625 0.390625 0.921875 0.625q0.546875 0.21875 1.171875 0.21875q0.84375 0 1.5 -0.390625q0.65625 -0.390625 1.03125 -1.015625l-2.71875 -4.453125q-0.59375 0.0625 -1.09375 0.296875q-0.5 0.234375 -0.875 0.625q-0.359375 0.375 -0.578125 0.90625q-0.203125 0.515625 -0.203125 1.109375zm19.828125 2.78125l1.5625 0l0 -11.78125l-4.109375 0l0 2.171875l-0.75 0l0 -2.921875l10.5 0l0 2.921875l-0.765625 0l0 -2.171875l-4.09375 0l0 11.78125l1.484375 0l0 0.765625l-3.828125 0l0 -0.765625zm17.185364 -12.53125l3.828125 0l0 0.75l-1.46875 0l0 11.78125l1.46875 0l0 0.765625l-3.828125 0l0 -0.765625l1.5625 0l0 -5.5625l-8.171875 0l0 5.5625l1.5625 0l0 0.765625l-3.8125 0l0 -0.765625l1.46875 0l0 -11.78125l-1.46875 0l0 -0.75l3.8125 0l0 0.75l-1.5625 0l0 5.453125l8.171875 0l0 -5.453125l-1.5625 0l0 -0.75zm4.9089355 12.53125l1.359375 0l0 -11.78125l-1.359375 0l0 -0.75l9.25 0l0 2.921875l-0.765625 0l0 -2.171875l-6.34375 0l0 5.453125l6.359375 0l0 0.765625l-6.359375 0l0 5.5625l6.609375 0l0 -2.15625l0.765625 0l0 2.921875l-9.515625 0l0 -0.765625zm16.249573 0l1.296875 0l0 -11.78125l-1.296875 0l0 -0.75l3.65625 0l0 0.75l-1.578125 0l0 11.78125l6.609375 0l0 -2.15625l0.765625 0l0 2.921875l-9.453125 0l0 -0.765625zm10.596741 0l1.359375 0l0 -11.78125l-1.359375 0l0 -0.75l9.25 0l0 2.921875l-0.765625 0l0 -2.171875l-6.34375 0l0 5.453125l6.359375 0l0 0.765625l-6.359375 0l0 5.5625l6.609375 0l0 -2.15625l0.765625 0l0 2.921875l-9.515625 0l0 -0.765625zm20.887085 -4.890625l0 4.890625q-0.765625 0.4375 -1.625 0.703125q-0.859375 0.25 -1.828125 0.25q-1.40625 0 -2.640625 -0.53125q-1.234375 -0.53125 -2.15625 -1.453125q-0.921875 -0.921875 -1.453125 -2.15625q-0.53125 -1.234375 -0.53125 -2.640625q0 -1.40625 0.53125 -2.640625q0.53125 -1.25 1.453125 -2.171875q0.921875 -0.921875 2.15625 -1.453125q1.234375 -0.546875 2.640625 -0.546875q0.96875 0 1.828125 0.25q0.859375 0.234375 1.640625 0.6875l-0.4375 0.65625q-0.65625 -0.40625 -1.4375 -0.625q-0.765625 -0.21875 -1.59375 -0.21875q-1.234375 0 -2.328125 0.484375q-1.09375 0.484375 -1.921875 1.3125q-0.8125 0.828125 -1.28125 1.9375q-0.453125 1.09375 -0.453125 2.34375q0 1.234375 0.453125 2.328125q0.46875 1.09375 1.28125 1.921875q0.828125 0.8125 1.890625 1.296875q1.078125 0.46875 2.3125 0.46875q1.453125 0 2.703125 -0.65625l0 -3.6875l-2.734375 0l0 -0.75l3.53125 0zm1.1273193 4.890625l1.359375 0l0 -11.78125l-1.359375 0l0 -0.75l9.25 0l0 2.921875l-0.765625 0l0 -2.171875l-6.34375 0l0 5.453125l6.359375 0l0 0.765625l-6.359375 0l0 5.5625l6.609375 0l0 -2.15625l0.765625 0l0 2.921875l-9.515625 0l0 -0.765625zm10.65271 0l1.53125 0l0 -11.78125l-1.53125 0l0 -0.75l2.046875 0l10.0 11.625l0.359375 0.5l-0.0625 -0.609375l0 -10.765625l-1.421875 0l0 -0.75l3.8125 0l0 0.75l-1.59375 0l0 13.15625l-10.5 -12.140625l-0.375 -0.421875l0.0625 0.53125l0 10.65625l1.484375 0l0 0.765625l-3.8125 0l0 -0.765625zm15.783203 0l1.1875 0l0 -11.78125l-1.1875 0l0 -0.75l3.984375 0q1.359375 0 2.578125 0.46875q1.21875 0.453125 2.125 1.328125q0.921875 0.859375 1.453125 2.09375q0.53125 1.234375 0.53125 2.75q0 1.125 -0.390625 2.3125q-0.390625 1.171875 -1.265625 2.140625q-0.875 0.96875 -2.28125 1.59375q-1.390625 0.609375 -3.390625 0.609375l-3.34375 0l0 -0.765625zm1.96875 -11.78125l0 11.78125l1.65625 0q1.578125 0 2.75 -0.5q1.1875 -0.5 1.953125 -1.328125q0.78125 -0.828125 1.171875 -1.875q0.390625 -1.0625 0.390625 -2.1875q0 -1.34375 -0.46875 -2.4375q-0.453125 -1.09375 -1.265625 -1.859375q-0.8125 -0.765625 -1.890625 -1.171875q-1.0625 -0.421875 -2.28125 -0.421875l-2.015625 0z" fill-rule="nonzero"></path></g></svg>

